<?xml version="1.0" standalone="no"?><!DOCTYPE svg PUBLIC "-//W3C//DTD SVG 1.1//EN" "http://www.w3.org/Graphics/SVG/1.1/DTD/svg11.dtd"><svg t="1676206634795" class="icon" viewBox="0 0 1024 1024" version="1.1" xmlns="http://www.w3.org/2000/svg" p-id="6485" xmlns:xlink="http://www.w3.org/1999/xlink" width="32" height="32"><path d="M609.010526 576.673684c0-53.894737-43.115789-97.010526-97.010526-97.010526s-97.010526 43.115789-97.010526 97.010526c0 32.336842 16.168421 59.284211 40.421052 75.452632v150.905263c0 32.336842 24.252632 56.589474 56.589474 56.589474s56.589474-24.252632 56.589474-56.589474v-150.905263c24.252632-16.168421 40.421053-43.115789 40.421052-75.452632z" fill="#d81e06" opacity=".4" p-id="6486"></path><path d="M776.084211 353.010526h-51.2v-107.789473c0-115.873684-94.315789-210.189474-210.189474-210.189474s-210.189474 94.315789-210.189474 210.189474v107.789473H247.915789c-53.894737 0-97.010526 43.115789-97.010526 97.010527v441.936842c0 53.894737 43.115789 97.010526 97.010526 97.010526h525.473685c53.894737 0 97.010526-43.115789 97.010526-97.010526V450.021053c0-53.894737-43.115789-97.010526-94.315789-97.010527z m-436.547369-107.789473c0-94.315789 78.147368-172.463158 172.463158-172.463158 94.315789 0 172.463158 78.147368 172.463158 172.463158v107.789473H339.536842v-107.789473z m493.136842 646.736842c0 32.336842-26.947368 59.284211-59.28421 59.28421H247.915789c-32.336842 0-59.284211-26.947368-59.28421-59.28421V450.021053c0-32.336842 26.947368-59.284211 59.28421-59.284211h525.473685c32.336842 0 59.284211 26.947368 59.28421 59.284211v441.936842z" fill="#d81e06" p-id="6487"></path><path d="M512 460.8c-64.673684 0-115.873684 51.2-115.873684 115.873684 0 35.031579 16.168421 64.673684 40.421052 88.926316v140.126316c0 43.115789 35.031579 75.452632 75.452632 75.452631 43.115789 0 75.452632-35.031579 75.452632-75.452631v-140.126316c24.252632-21.557895 40.421053-53.894737 40.421052-88.926316 0-61.978947-51.2-115.873684-115.873684-115.873684z m45.810526 180.547368l-2.694737 2.694737-2.694736 2.694737v156.294737c0 21.557895-16.168421 37.726316-37.726316 37.726316s-37.726316-16.168421-37.726316-37.726316v-148.210526-2.694737-2.694737-2.694737s0-2.694737-2.694737-2.694737l-2.694737-2.694737c-21.557895-13.473684-32.336842-37.726316-32.336842-64.673684 0-43.115789 35.031579-78.147368 78.147369-78.147368s78.147368 35.031579 78.147368 78.147368c-5.389474 26.947368-16.168421 51.2-37.726316 64.673684z" fill="#d81e06" p-id="6488"></path></svg>