<?xml version="1.0" standalone="no"?><!DOCTYPE svg PUBLIC "-//W3C//DTD SVG 1.1//EN" "http://www.w3.org/Graphics/SVG/1.1/DTD/svg11.dtd"><svg t="1684742765171" class="icon" viewBox="0 0 1024 1024" version="1.1" xmlns="http://www.w3.org/2000/svg" p-id="8745" xmlns:xlink="http://www.w3.org/1999/xlink" width="32" height="32"><path d="M0 511.19a512 511.19 0 1 0 1024 0 512 511.19 0 1 0-1024 0z" fill="#FF3333" p-id="8746"></path><path d="M512.768 460.245l129.28-129.28a36.65 36.65 0 1 1 51.797 51.798l-129.28 129.28 129.579 129.536a36.565 36.565 0 0 1-51.755 51.712L512.853 563.755l-129.28 129.28a36.65 36.65 0 0 1-51.754-51.798l129.28-129.28L331.52 382.421a36.565 36.565 0 0 1 51.712-51.754l129.536 129.536z" fill="#FFFFFF" p-id="8747"></path></svg>