<?xml version="1.0" standalone="no"?><!DOCTYPE svg PUBLIC "-//W3C//DTD SVG 1.1//EN" "http://www.w3.org/Graphics/SVG/1.1/DTD/svg11.dtd"><svg t="1684722468651" class="icon" viewBox="0 0 1024 1024" version="1.1" xmlns="http://www.w3.org/2000/svg" p-id="3256" xmlns:xlink="http://www.w3.org/1999/xlink" width="32" height="32"><path d="M511.500488 512.499512m-511.500488 0a511.500488 511.500488 0 1 0 1023.000976 0 511.500488 511.500488 0 1 0-1023.000976 0Z" fill="#1BC1FA" p-id="3257"></path><path d="M627.84487 635.935969c46.679415-41.745233 105.950533-55.146146 147.110338-37.076792a271.239118 271.239118 0 0 0 8.025163-28.063595H606.727493c-5.224898 25.43616-22.521007 61.271165-78.893955 61.271165-87.284761 0-89.78432-86.027988-89.78432-86.027988h170.81319v0.175828h178.51367c1.582455-11.920359 2.675387-23.990572 2.675387-36.325526 0-121.298544-79.270587-223.983266-188.799625-259.353724 234.507988-164.407446 192.141362 66.50905 192.141362 66.509049 48.220909-132.993124-8.31488-194.503056-186.188176-98.074224-13.778544 7.448726-26.942689 15.198158-39.855079 23.074466-16.204176-3.002068-32.846923-4.77234-49.929241-4.772339-146.408023 0-265.546677 115.508199-272.003371 260.370731 81.419489-119.615188 220.491676-187.255134 220.491676-187.255133l0.138864 3.981112C370.74894 393.839391 306.249928 484.227122 259.750338 571.385007c-66.50905 124.665257-53.182064 234.409085-8.289905 264.315879 67.501081 44.992062 161.166611-11.480788 219.272867-57.351992 15.173182 2.637424 30.748972 4.169928 46.688405 4.169927 19.477979 0 38.468433-2.05799 56.780551-5.942197-12.501791-42.754248 7.480695-99.357971 53.642614-140.640655zM519.104062 382.698271c87.271774 0 89.759344 86.040976 89.759345 86.040976h-170.81319s-6.230915-86.040976 81.053845-86.040976zM286.366345 662.828706l2.687376-4.836277c37.481397 57.867489 96.190064 100.573783 165.161709 117.028714-278.421104 160.752016-167.849085-112.192437-167.849085-112.192437z" fill="#FFFFFF" p-id="3258"></path><path d="M774.955208 598.858178c-41.159805-18.069354-100.430923-4.668441-147.110338 37.076792-46.16192 41.282685-66.144406 97.886408-53.642614 140.640655 93.943259-19.92754 169.895087-88.292777 200.752952-177.717447z" fill="#FFFFFF" opacity=".4" p-id="3259"></path></svg>