<?xml version="1.0" standalone="no"?><!DOCTYPE svg PUBLIC "-//W3C//DTD SVG 1.1//EN" "http://www.w3.org/Graphics/SVG/1.1/DTD/svg11.dtd"><svg t="1684722857208" class="icon" viewBox="0 0 1024 1024" version="1.1" xmlns="http://www.w3.org/2000/svg" p-id="6433" xmlns:xlink="http://www.w3.org/1999/xlink" width="32" height="32"><path d="M728.817346 446.041567L416.705043 758.091873c-41.55991 41.621907-109.244506 41.621907-150.804416 0-41.623907-41.55991-41.623907-109.244506 0-150.806415l312.046306-312.110303-165.927655-165.899657L99.968972 441.353803c-133.307296 133.307296-133.307296 349.392428 0 482.665725 133.307296 133.307296 349.422427 133.307296 482.665726 0l312.112303-312.048306-165.929655-165.929655z" fill="#DA4453" p-id="6434"></path><path d="M261.212863 280.111912l165.929655 165.929655 150.804415-150.868412-165.927655-165.897657z" fill="#CCD1D9" p-id="6435"></path><path d="M932.371108 438.479948a21.294929 21.294929 0 0 0 6.249686-15.12324c0-11.781407-9.561519-21.310928-21.310928-21.310928a21.352926 21.352926 0 0 0-15.12324 6.249686l-60.308967 60.308966a21.222933 21.222933 0 0 0-6.249685 15.091242c0 11.781407 9.561519 21.342927 21.310928 21.342926 5.937701 0 11.249434-2.405879 15.123239-6.281684l60.308967-60.276968zM1017.678818 528.945398a21.220933 21.220933 0 0 0-15.061243-6.249686h-85.307709a21.220933 21.220933 0 0 0-15.061243 6.249686c-8.375579 8.34358-8.375579 21.842901 0 30.154483 4.123793 4.187789 9.623516 6.249686 15.061243 6.249686h85.307709c5.437727 0 10.93745-2.061896 15.061243-6.249686 8.375579-8.311582 8.375579-21.810903 0-30.154483zM811.689178 322.953758c-8.311582-8.34358-21.810903-8.34358-30.122485 0-4.187789 4.155791-6.249686 9.623516-6.249686 15.093241v85.309709c0 5.437727 2.061896 10.93745 6.249686 15.061243a21.196934 21.196934 0 0 0 30.122485 0c4.187789-4.123793 6.249686-9.623516 6.249685-15.061243v-85.309709c0-5.469725-2.061896-10.93745-6.249685-15.093241z" fill="#AAB2BD" p-id="6436"></path><path d="M615.695035 121.741877a21.206933 21.206933 0 0 0 6.251685-15.061242c0-11.811406-9.563519-21.342927-21.374925-21.342927-5.875704 0-11.187437 2.405879-15.061242 6.249686v-0.031999l-60.308967 60.372964a21.148936 21.148936 0 0 0-6.249686 15.061243c0 11.781407 9.561519 21.342927 21.310929 21.342926 5.875704 0 11.249434-2.405879 15.061242-6.249685l60.370964-60.340966zM701.006744 212.239326a21.330927 21.330927 0 0 0-15.061242-6.249686h-85.30971c-5.499723 0-10.93745 2.093895-15.123239 6.249686-8.311582 8.34358-8.311582 21.842901 0 30.186482a21.366925 21.366925 0 0 0 15.123239 6.249685h85.30971c5.437727 0 10.875453-2.093895 15.061242-6.249685 8.311582-8.34358 8.311582-21.842901 0-30.186482zM495.015104 6.247686c-8.311582-8.313582-21.810903-8.313582-30.186482 0-4.123793 4.187789-6.249686 9.623516-6.249685 15.123239v85.245713c0 5.499723 2.123893 10.93745 6.249685 15.123239 8.375579 8.313582 21.8749 8.313582 30.186482 0a21.214933 21.214933 0 0 0 6.249686-15.093241V21.340927c0-5.467725-2.063896-10.905452-6.249686-15.093241z" fill="#AAB2BD" p-id="6437"></path><path d="M894.747001 611.971222l-165.929655-165.929655-150.870413 150.806416 165.931655 165.931655z" fill="#CCD1D9" p-id="6438"></path></svg>