<?xml version="1.0" standalone="no"?><!DOCTYPE svg PUBLIC "-//W3C//DTD SVG 1.1//EN" "http://www.w3.org/Graphics/SVG/1.1/DTD/svg11.dtd"><svg t="1684724768873" class="icon" viewBox="0 0 1024 1024" version="1.1" xmlns="http://www.w3.org/2000/svg" p-id="20171" xmlns:xlink="http://www.w3.org/1999/xlink" width="32" height="32"><path d="M960 511.1c0-125.5-52-238.7-135.4-319.9-83.5-81.5-195.7-127.1-312.6-127-116.9-0.1-229.1 45.5-312.6 127.1-13.6 13.2-26.2 27.3-38.1 42.2-63 78.8-97.3 176.7-97.2 277.6 0 246.8 200.5 447 448 447 116.9 0.1 229.1-45.6 312.6-127.1 13.6-13.2 26.3-27.3 38.1-42.2C925.7 710 960 612 960 511.1zM405.6 128.9c-29.7 40.2-54.7 84.1-74.4 130.7-30.4-10.4-59.8-23.7-88-39.7 46.1-44.3 101.9-75.6 162.4-91zM345.3 480c2.7-49.7 12.8-97.4 29.5-142.3 34.1 7.4 69.3 12 105.3 13.6V480H345.3z m134.3 64.4v126.4c-35.3 1.5-70.4 6-104.9 13.3-17-45.1-26.9-92.1-29.5-139.8h134.4zM208 276.2c33 18.8 67.7 34.2 103.7 46.1-17.2 51-27.2 104.2-29.6 158.1H127.5c5.1-74.9 33.3-146.2 80.5-204.2z m0 470.9c-47.2-57.3-75.4-127.7-80.5-201.5H282c2.6 54.4 12.7 106.7 29.7 156.1-36 11.6-70.7 26.9-103.7 45.4z m35.2 57c28.2-16 57.6-29.3 88-39.7 19.7 46.6 44.7 90.5 74.4 130.7-60.5-15.5-116.3-46.8-162.4-91zM484 879.8c-35.1-40-64.4-84.7-87-132.9 28.7-6.1 57.8-10 87-11.5v144.4z m0-592.9c-29.3-1.5-58.4-5.4-87-11.5 22.6-48.2 51.9-92.9 87-132.9v144.4zM815.9 276c46.6 58.1 74.3 129.5 79.4 204.4H742.9c-2.4-53.9-12.3-107.2-29.3-158.3 35.5-11.8 69.7-27.3 102.3-46.1-0.1 0-0.1 0 0 0z m-34.3-56.4c-28 16-57.2 29.3-87.4 39.8-19.6-46.7-44.4-90.6-73.9-130.9 61.1 15.7 116.2 47.5 161.3 91.1zM544.1 479.9V351.3c35.4-1.6 70.6-6.1 105.1-13.6 17 45.8 26.9 93.7 29.5 142.2H544.1z m134.7 64.6c-2.6 47.6-12.5 94.6-29.5 139.6-34.5-7.3-69.7-11.8-105.1-13.3V544.5h134.6zM540 142.4c35.1 40 64.4 84.7 87 132.9-28.3 6-57.3 10-87 11.5V142.4z m0 593c29.7 1.6 58.7 5.5 87 11.5-22.6 48.2-51.8 92.9-87 132.9V735.4z m80.3 160.3c29.5-40.2 54.3-84.2 73.9-130.9 30.4 10.5 59.6 23.9 87.3 39.8-45.7 44.3-101.1 75.6-161.2 91.1z m195.5-148.2c-32.5-18.6-66.8-33.8-102.3-45.6 17-50.4 26.9-103 29.3-156.2h152.4c-5 74-32.8 144.5-79.4 201.8z" fill="#4AAF47" p-id="20172"></path></svg>